<?xml version="1.0" standalone="no"?>
<!DOCTYPE svg PUBLIC "-//W3C//DTD SVG 20010904//EN"
 "http://www.w3.org/TR/2001/REC-SVG-20010904/DTD/svg10.dtd">
<svg version="1.0" xmlns="http://www.w3.org/2000/svg"
 width="16.000000pt" height="16.000000pt" viewBox="0 0 16.000000 16.000000"
 preserveAspectRatio="xMidYMid meet">
<metadata>
Created by potrace 1.11, written by Peter Selinger 2001-2013
</metadata>
<g transform="translate(0.000000,16.000000) scale(0.003125,-0.003125)"
fill="#000000" stroke="none">
<path d="M1040 3161 l0 -1711 435 0 435 0 0 -590 0 -590 466 0 c449 0 471 1
618 25 84 14 193 39 242 56 84 29 253 105 264 120 3 3 21 14 40 24 112 58 301
240 388 374 107 166 164 299 219 511 l38 145 0 445 0 445 -29 105 c-15 58 -32
121 -36 140 -12 52 -26 91 -44 125 -9 17 -16 35 -16 41 0 19 -92 187 -143 263
-114 167 -292 320 -487 418 -58 29 -110 53 -117 53 -6 0 -9 9 -6 20 9 33 -67
332 -94 375 -7 11 -13 26 -13 33 0 24 -85 185 -146 277 -116 177 -330 359
-528 449 -121 55 -290 106 -426 128 -108 17 -187 21 -592 25 l-468 5 0 -1711z
m975 1334 c377 -72 622 -263 765 -598 32 -75 70 -192 70 -217 0 -3 -211 -3
-470 -2 l-470 4 0 -936 0 -936 -215 0 -215 0 0 1350 0 1350 228 0 c162 0 250
-4 307 -15z m869 -1181 c13 -5 16 -24 16 -118 0 -203 -20 -432 -51 -566 -16
-69 -34 -134 -39 -145 -5 -11 -28 -62 -50 -114 -60 -140 -170 -278 -299 -375
-51 -37 -97 -66 -107 -66 -2 0 -4 316 -4 702 l0 701 259 -6 c142 -4 266 -10
275 -13z m507 -221 c22 -21 46 -43 52 -50 82 -84 176 -232 219 -346 17 -45 35
-87 39 -93 5 -5 16 -53 25 -105 9 -52 18 -97 20 -101 10 -15 34 -320 34 -423
0 -109 -23 -406 -34 -435 -3 -8 -12 -51 -20 -95 -7 -44 -25 -106 -40 -137 -14
-31 -26 -63 -26 -71 0 -18 -86 -186 -106 -207 -7 -8 -37 -42 -65 -75 -28 -33
-72 -77 -97 -99 -26 -21 -49 -42 -52 -46 -10 -15 -130 -81 -212 -115 -134 -57
-266 -75 -544 -75 l-234 0 0 454 0 454 48 17 c52 19 203 91 271 129 111 63
318 266 397 388 99 153 159 295 211 498 35 140 37 152 41 358 5 239 4 239 73
175z"/>
</g>
</svg>
